<svg width="50" height="50" viewBox="0 0 50 50" fill="none" xmlns="http://www.w3.org/2000/svg">
<rect x="1" y="1" width="48" height="48" rx="4" fill="#AF2E1C" stroke="#AF2E1C" stroke-width="2"/>
<g clip-path="url(#clip0_11_9)">
<path d="M39.6334 37.8663L31.1023 29.3351C32.7548 27.2939 33.7498 24.7002 33.7498 21.8752C33.7498 15.3278 28.4223 10.0003 21.8748 10.0003C15.3274 10.0003 10 15.3277 10 21.8751C10 28.4226 15.3275 33.75 21.8749 33.75C24.6999 33.75 27.2936 32.7551 29.3348 31.1026L37.866 39.6337C38.1097 39.8775 38.4297 40 38.7497 40C39.0698 40 39.3898 39.8775 39.6335 39.6337C40.1222 39.145 40.1222 38.355 39.6334 37.8663ZM21.8749 31.2501C16.7049 31.2501 12.5 27.0451 12.5 21.8751C12.5 16.7052 16.7049 12.5002 21.8749 12.5002C27.0449 12.5002 31.2498 16.7052 31.2498 21.8751C31.2498 27.0451 27.0448 31.2501 21.8749 31.2501Z" fill="white"/>
</g>
<defs>
<clipPath id="clip0_11_9">
<rect width="30" height="30" fill="white" transform="translate(10 10)"/>
</clipPath>
</defs>
</svg>
