<svg width="20" height="20" viewBox="0 0 20 20" fill="none" xmlns="http://www.w3.org/2000/svg">
<path d="M18.481 6.72312C18.5433 6.38907 18.5749 6.04999 18.5753 5.71016C18.5715 2.554 16.0099 -0.00148532 12.8537 0.00232359C10.4511 0.00521166 8.30687 1.51057 7.48799 3.76934C6.02181 3.18569 4.36008 3.9011 3.7764 5.36728C3.72588 5.49419 3.68452 5.62453 3.65267 5.75734C1.31157 6.10746 -0.302401 8.28913 0.047726 10.6302C0.361731 12.7299 2.16548 14.2832 4.28842 14.2823H7.86014C8.25467 14.2823 8.57449 13.9625 8.57449 13.568C8.57449 13.1735 8.25467 12.8536 7.86014 12.8536H4.28842C2.71032 12.8536 1.43103 11.5743 1.43103 9.99623C1.43103 8.41813 2.71032 7.13884 4.28842 7.13884C4.68296 7.13884 5.00278 6.81902 5.00278 6.42448C5.00408 5.63545 5.64477 4.99685 6.4338 4.99815C6.80695 4.99878 7.16507 5.14536 7.43153 5.40654C7.71251 5.68346 8.16481 5.68015 8.44173 5.39917C8.5457 5.29365 8.6143 5.15846 8.63803 5.01221C9.02579 2.67944 11.2312 1.10272 13.564 1.49048C15.8967 1.87823 17.4734 4.08363 17.0857 6.4164C17.0626 6.55549 17.0326 6.69337 16.9959 6.82948C16.9137 7.12766 17.0328 7.44481 17.2909 7.61525C18.6059 8.48774 18.9645 10.2611 18.092 11.576C17.5639 12.3719 16.6731 12.8513 15.7179 12.8535H13.5749C13.1803 12.8535 12.8605 13.1734 12.8605 13.5679C12.8605 13.9624 13.1803 14.2823 13.5749 14.2823H15.7179C18.0851 14.28 20.0022 12.3593 19.9999 9.99213C19.9988 8.73222 19.4432 7.5366 18.481 6.72312Z" fill="white"/>
<path d="M14.7781 15.206C14.5013 14.9387 14.0624 14.9387 13.7856 15.206L11.4319 17.5584V7.13892C11.4319 6.74438 11.112 6.42456 10.7175 6.42456C10.323 6.42456 10.0031 6.74438 10.0031 7.13892V17.5583L7.65079 15.206C7.36701 14.9319 6.91479 14.9398 6.64072 15.2235C6.37334 15.5004 6.37334 15.9392 6.64072 16.2161L10.2124 19.7878C10.491 20.0671 10.9434 20.0677 11.2227 19.789C11.2231 19.7886 11.2235 19.7882 11.224 19.7878L14.7957 16.2161C15.0698 15.9323 15.0619 15.4801 14.7781 15.206Z" fill="white"/>
</svg>
