<svg width="21" height="30" viewBox="0 0 21 30" fill="none" xmlns="http://www.w3.org/2000/svg">
<path d="M10.806 30C5.29138 30 0.80603 25.795 0.80603 20.625V7.5C0.80603 6.80878 1.40344 6.25008 2.13928 6.25008C2.87537 6.25008 3.47278 6.80878 3.47278 7.5V20.625C3.47278 24.4151 6.76208 27.4999 10.806 27.4999C14.85 27.4999 18.1393 24.4151 18.1393 20.625V6.87492C18.1393 4.46251 16.046 2.50008 13.4728 2.50008C10.8993 2.50008 8.80603 4.46251 8.80603 6.87492V19.3751C8.80603 20.4087 9.70325 21.2501 10.806 21.2501C11.9088 21.2501 12.806 20.4087 12.806 19.3751V7.5C12.806 6.80878 13.4034 6.25008 14.1393 6.25008C14.8754 6.25008 15.4728 6.80878 15.4728 7.5V19.3751C15.4728 21.7875 13.3793 23.7499 10.806 23.7499C8.23279 23.7499 6.13928 21.7875 6.13928 19.3751V6.87492C6.13928 3.0851 9.42859 0 13.4728 0C17.5167 0 20.806 3.0851 20.806 6.87492V20.625C20.806 25.795 16.3207 30 10.806 30Z" fill="white"/>
</svg>
