<svg width="30" height="36" viewBox="0 0 30 36" fill="none" xmlns="http://www.w3.org/2000/svg">
<path d="M12.33 23.7081C14.6708 23.7081 16.9158 22.7782 18.571 21.1229C20.2262 19.4677 21.1562 17.2227 21.1562 14.8819C21.1562 12.541 20.2262 10.296 18.571 8.64079C16.9158 6.98556 14.6708 6.05566 12.33 6.05566C9.9891 6.05566 7.74412 6.98556 6.08889 8.64079C4.43366 10.296 3.50376 12.541 3.50376 14.8819C3.50376 17.2227 4.43366 19.4677 6.08889 21.1229C7.74412 22.7782 9.9891 23.7081 12.33 23.7081ZM22.9443 8.55171C23.9862 10.2992 24.5805 12.2768 24.6747 14.309C24.7689 16.3413 24.36 18.3654 23.4843 20.2017C22.6085 22.038 21.2931 23.6298 19.6546 24.8358C18.0161 26.0418 16.1053 26.8246 14.0917 27.115L14.0952 27.2385V29.0038H15.8604C16.3286 29.0038 16.7776 29.1898 17.1086 29.5208C17.4397 29.8518 17.6257 30.3008 17.6257 30.769C17.6257 31.2372 17.4397 31.6862 17.1086 32.0172C16.7776 32.3483 16.3286 32.5343 15.8604 32.5343H14.0952V34.2995C14.0952 34.7677 13.9092 35.2167 13.5782 35.5477C13.2471 35.8788 12.7981 36.0647 12.33 36.0647C11.8618 36.0647 11.4128 35.8788 11.0817 35.5477C10.7507 35.2167 10.5647 34.7677 10.5647 34.2995V32.5343H8.79947C8.3313 32.5343 7.88231 32.3483 7.55126 32.0172C7.22022 31.6862 7.03424 31.2372 7.03424 30.769C7.03424 30.3008 7.22022 29.8518 7.55126 29.5208C7.88231 29.1898 8.3313 29.0038 8.79947 29.0038H10.5647V27.2385C10.5647 27.1962 10.5647 27.1556 10.5682 27.115C7.4812 26.6626 4.67944 25.0596 2.72515 22.6274C0.770865 20.1953 -0.191337 17.1141 0.0316205 14.0021C0.254578 10.8901 1.6462 7.97748 3.92724 5.84879C6.20828 3.72011 9.20996 2.53282 12.33 2.52518C15.4343 2.5214 18.4258 3.68959 20.706 5.79617L23.9717 2.53048H21.1738C20.7056 2.53048 20.2566 2.3445 19.9256 2.01345C19.5945 1.68241 19.4086 1.23341 19.4086 0.765239C19.4086 0.297069 19.5945 -0.151927 19.9256 -0.482973C20.2566 -0.81402 20.7056 -1 21.1738 -1H28.2348C28.7029 -1 29.1519 -0.81402 29.483 -0.482973C29.814 -0.151927 30 0.297069 30 0.765239V7.8262C30 8.29437 29.814 8.74336 29.483 9.07441C29.1519 9.40546 28.7029 9.59144 28.2348 9.59144C27.7666 9.59144 27.3176 9.40546 26.9865 9.07441C26.6555 8.74336 26.4695 8.29437 26.4695 7.8262V5.02653L22.9461 8.55171H22.9443Z" fill="#AF2E1C"/>
</svg>
