<svg width="28" height="28" viewBox="0 0 28 28" fill="none" xmlns="http://www.w3.org/2000/svg">
<path d="M5.93 12.185C8.09 16.43 11.57 19.895 15.815 22.07L19.115 18.77C19.52 18.365 20.12 18.23 20.645 18.41C22.325 18.965 24.14 19.265 26 19.265C26.825 19.265 27.5 19.94 27.5 20.765V26C27.5 26.825 26.825 27.5 26 27.5C11.915 27.5 0.5 16.085 0.5 2C0.5 1.175 1.175 0.5 2 0.5H7.25C8.075 0.5 8.75 1.175 8.75 2C8.75 3.875 9.05 5.675 9.605 7.355C9.77 7.88 9.65 8.465 9.23 8.885L5.93 12.185Z" fill="#AF2E1C"/>
</svg>
