<svg width="198" height="66" viewBox="0 0 198 66" fill="none" xmlns="http://www.w3.org/2000/svg">
<path d="M11.3906 26.6191L5.57227 46.4121C5.23242 47.584 5.0625 48.3164 5.0625 48.6094C5.0625 48.7617 5.10938 48.8906 5.20312 48.9961C5.30859 49.1016 5.41992 49.1543 5.53711 49.1543C5.74805 49.1543 5.94727 49.0723 6.13477 48.9082C6.69727 48.4512 7.32422 47.6777 8.01562 46.5879L8.70117 46.9043C7.58789 48.6855 6.49219 49.957 5.41406 50.7188C4.67578 51.2344 3.89062 51.4922 3.05859 51.4922C2.28516 51.4922 1.66992 51.2871 1.21289 50.877C0.755859 50.4551 0.527344 49.9512 0.527344 49.3652C0.527344 48.9316 0.667969 48.2344 0.949219 47.2734L5.69531 31.0664C5.95312 30.1758 6.08203 29.584 6.08203 29.291C6.08203 29.0098 5.95898 28.7871 5.71289 28.623C5.38477 28.3887 4.88672 28.2891 4.21875 28.3242L4.41211 27.6562L10.3359 26.6191H11.3906ZM18.1055 26.6191C18.832 26.6191 19.4414 26.8711 19.9336 27.375C20.4375 27.8789 20.6895 28.4883 20.6895 29.2031C20.6895 29.918 20.4375 30.5273 19.9336 31.0312C19.4297 31.5352 18.8203 31.7871 18.1055 31.7871C17.4023 31.7871 16.7988 31.5352 16.2949 31.0312C15.791 30.5273 15.5391 29.918 15.5391 29.2031C15.5391 28.4883 15.7852 27.8789 16.2773 27.375C16.7812 26.8711 17.3906 26.6191 18.1055 26.6191ZM19.1953 34.7051L15.5918 47.2031C15.3926 47.918 15.293 48.3867 15.293 48.6094C15.293 48.7383 15.3457 48.8613 15.4512 48.9785C15.5566 49.084 15.668 49.1367 15.7852 49.1367C15.9844 49.1367 16.1836 49.0488 16.3828 48.873C16.9102 48.4395 17.543 47.6543 18.2812 46.5176L18.8789 46.8691C17.1094 49.9512 15.2285 51.4922 13.2363 51.4922C12.4746 51.4922 11.8652 51.2812 11.4082 50.8594C10.9629 50.4258 10.7402 49.8809 10.7402 49.2246C10.7402 48.791 10.8398 48.2402 11.0391 47.5723L13.4824 39.1699C13.7168 38.3613 13.834 37.752 13.834 37.3418C13.834 37.084 13.7227 36.8555 13.5 36.6562C13.2773 36.457 12.9727 36.3574 12.5859 36.3574C12.4102 36.3574 12.1992 36.3633 11.9531 36.375L12.1816 35.6719L18.1406 34.7051H19.1953ZM30.3574 30.416L28.9512 35.1973H31.2539L30.6387 37.2188H28.3711L25.4355 47.4141C25.248 48.0469 25.1543 48.5273 25.1543 48.8555C25.1543 49.0078 25.207 49.1426 25.3125 49.2598C25.418 49.3652 25.5352 49.418 25.6641 49.418C25.8633 49.418 26.0684 49.3359 26.2793 49.1719C26.8184 48.7617 27.4453 48.0469 28.1602 47.0273L28.7754 47.4141C27.9668 48.8203 27.0762 49.8516 26.1035 50.5078C25.1309 51.1641 24.1758 51.4922 23.2383 51.4922C22.4414 51.4922 21.8203 51.293 21.375 50.8945C20.9414 50.4844 20.7246 49.9688 20.7246 49.3477C20.7246 48.668 20.877 47.7949 21.1816 46.7285L23.959 37.2188H21.5684L21.9199 35.918C23.4199 35.3672 24.6855 34.7227 25.7168 33.9844C26.748 33.2461 27.9902 32.0566 29.4434 30.416H30.3574ZM35.6836 44.4082C35.5781 45.1699 35.5254 45.7969 35.5254 46.2891C35.5254 47.168 35.7773 47.8711 36.2812 48.3984C36.7969 48.9258 37.4824 49.1895 38.3379 49.1895C39.1582 49.1895 39.9785 48.9902 40.7988 48.5918C41.6309 48.1934 42.5918 47.4961 43.6816 46.5L44.209 46.9746C42.8613 48.6035 41.5488 49.7637 40.2715 50.4551C38.9941 51.1465 37.582 51.4922 36.0352 51.4922C34.0781 51.4922 32.7246 51.0234 31.9746 50.0859C31.2246 49.1484 30.8496 48.0645 30.8496 46.834C30.8496 44.9121 31.4062 42.9902 32.5195 41.0684C33.6445 39.1465 35.168 37.6055 37.0898 36.4453C39.0234 35.2852 40.9629 34.7051 42.9082 34.7051C43.8926 34.7051 44.6367 34.9395 45.1406 35.4082C45.6445 35.877 45.8965 36.4688 45.8965 37.1836C45.8965 38.0391 45.6504 38.8711 45.1582 39.6797C44.4785 40.7812 43.623 41.6719 42.5918 42.3516C41.5605 43.0195 40.4062 43.5293 39.1289 43.8809C38.2734 44.1152 37.125 44.291 35.6836 44.4082ZM35.8418 43.4941C36.873 43.3418 37.6699 43.1367 38.2324 42.8789C38.8066 42.6094 39.3633 42.1875 39.9023 41.6133C40.4531 41.0273 40.9277 40.2949 41.3262 39.416C41.7246 38.5254 41.9238 37.6934 41.9238 36.9199C41.9238 36.5918 41.8301 36.334 41.6426 36.1465C41.4668 35.959 41.2383 35.8652 40.957 35.8652C40.3945 35.8652 39.7617 36.2578 39.0586 37.043C37.7695 38.4727 36.6973 40.623 35.8418 43.4941ZM54.5801 34.7051L51.9258 44.584C54.1055 39.7676 55.7461 36.8027 56.8477 35.6895C57.4922 35.0332 58.1719 34.7051 58.8867 34.7051C59.3789 34.7051 59.7773 34.8867 60.082 35.25C60.3867 35.6016 60.5391 36.1055 60.5391 36.7617C60.5391 37.8984 60.2637 38.8535 59.7129 39.627C59.3613 40.1191 58.9688 40.3652 58.5352 40.3652C58.0664 40.3652 57.7148 40.1484 57.4805 39.7148C57.2461 39.2812 57.082 39.0293 56.9883 38.959C56.8945 38.877 56.7949 38.8359 56.6895 38.8359C56.5723 38.8359 56.4492 38.8711 56.3203 38.9414C56.0625 39.082 55.7227 39.4277 55.3008 39.9785C54.8906 40.5176 54.3809 41.4258 53.7715 42.7031C53.1621 43.9805 52.6875 45.0645 52.3477 45.9551C52.0078 46.834 51.5332 48.5156 50.9238 51H46.6699L49.5703 39.3457C49.7812 38.4785 49.8867 37.9043 49.8867 37.623C49.8867 37.3066 49.8281 37.0605 49.7109 36.8848C49.6055 36.709 49.4531 36.5801 49.2539 36.498C49.0664 36.416 48.668 36.375 48.0586 36.375L48.2168 35.8652L53.5254 34.7051H54.5801ZM77.3262 34.9512L73.916 46.6406L73.5645 48.0645C73.5293 48.2402 73.5117 48.3691 73.5117 48.4512C73.5117 48.5918 73.5586 48.7148 73.6523 48.8203C73.7578 48.9258 73.8633 48.9785 73.9688 48.9785C74.2148 48.9785 74.5547 48.791 74.9883 48.416C75.1641 48.2637 75.5859 47.7246 76.2539 46.7988L76.8691 47.1152C76.0371 48.6387 75.1465 49.752 74.1973 50.4551C73.2598 51.1465 72.2461 51.4922 71.1562 51.4922C70.4883 51.4922 69.9785 51.3223 69.627 50.9824C69.2754 50.6309 69.0996 50.1914 69.0996 49.6641C69.0996 49.207 69.2871 48.3574 69.6621 47.1152L70.084 45.6914C68.7246 48.0234 67.418 49.6758 66.1641 50.6484C65.4375 51.2109 64.6641 51.4922 63.8438 51.4922C62.7656 51.4922 61.9863 51.0527 61.5059 50.1738C61.0254 49.2832 60.7852 48.2812 60.7852 47.168C60.7852 45.5156 61.2891 43.623 62.2969 41.4902C63.3047 39.3457 64.6289 37.623 66.2695 36.3223C67.6172 35.2441 68.8828 34.7051 70.0664 34.7051C70.7227 34.7051 71.25 34.8984 71.6484 35.2852C72.0469 35.6602 72.3398 36.3516 72.5273 37.3594L73.1602 35.1973L77.3262 34.9512ZM71.7012 38.291C71.7012 37.3418 71.5547 36.6562 71.2617 36.2344C71.0508 35.9414 70.7637 35.7949 70.4004 35.7949C70.0371 35.7949 69.6621 35.9707 69.2754 36.3223C68.4902 37.0488 67.6406 38.5254 66.7266 40.752C65.8242 42.9668 65.373 44.8828 65.373 46.5C65.373 47.1211 65.4727 47.5723 65.6719 47.8535C65.8828 48.123 66.1113 48.2578 66.3574 48.2578C66.8848 48.2578 67.418 47.9531 67.957 47.3438C68.7305 46.4766 69.4277 45.416 70.0488 44.1621C71.1504 41.959 71.7012 40.002 71.7012 38.291ZM88.4004 30.416L86.9941 35.1973H89.2969L88.6816 37.2188H86.4141L83.4785 47.4141C83.291 48.0469 83.1973 48.5273 83.1973 48.8555C83.1973 49.0078 83.25 49.1426 83.3555 49.2598C83.4609 49.3652 83.5781 49.418 83.707 49.418C83.9062 49.418 84.1113 49.3359 84.3223 49.1719C84.8613 48.7617 85.4883 48.0469 86.2031 47.0273L86.8184 47.4141C86.0098 48.8203 85.1191 49.8516 84.1465 50.5078C83.1738 51.1641 82.2188 51.4922 81.2812 51.4922C80.4844 51.4922 79.8633 51.293 79.418 50.8945C78.9844 50.4844 78.7676 49.9688 78.7676 49.3477C78.7676 48.668 78.9199 47.7949 79.2246 46.7285L82.002 37.2188H79.6113L79.9629 35.918C81.4629 35.3672 82.7285 34.7227 83.7598 33.9844C84.791 33.2461 86.0332 32.0566 87.4863 30.416H88.4004ZM97.6641 34.7051L94.2539 46.6582C94.0898 47.209 94.0078 47.5898 94.0078 47.8008C94.0078 47.9062 94.0488 47.9883 94.1309 48.0469C94.2246 48.1406 94.3359 48.1875 94.4648 48.1875C95.0039 48.1875 95.7246 47.707 96.627 46.7461C97.916 45.3516 99.2695 43.3477 100.688 40.7344L102.287 35.3555L106.734 35.1973L103.359 46.7988C103.078 47.7832 102.938 48.3457 102.938 48.4863C102.938 48.5801 102.979 48.6797 103.061 48.7852C103.154 48.8789 103.248 48.9258 103.342 48.9258C103.506 48.9258 103.664 48.8555 103.816 48.7148C104.238 48.375 104.795 47.6895 105.486 46.6582L106.084 47.0801C104.455 50.0215 102.662 51.4922 100.705 51.4922C99.9785 51.4922 99.4043 51.3105 98.9824 50.9473C98.5723 50.5723 98.3672 50.0859 98.3672 49.4883C98.3672 48.8555 98.5137 48.0527 98.8066 47.0801L99.668 44.1094C98.1445 46.3242 97.0371 47.8184 96.3457 48.5918C95.291 49.752 94.4004 50.5254 93.6738 50.9121C92.959 51.2988 92.2734 51.4922 91.6172 51.4922C90.9961 51.4922 90.457 51.2637 90 50.8066C89.5547 50.3496 89.332 49.7695 89.332 49.0664C89.332 48.4688 89.4785 47.666 89.7715 46.6582L91.7578 39.627C92.0859 38.4785 92.25 37.7051 92.25 37.3066C92.25 37.1309 92.2031 36.9785 92.1094 36.8496C92.0156 36.709 91.8574 36.6035 91.6348 36.5332C91.4238 36.4512 91.0254 36.4102 90.4395 36.4102L90.6152 35.7422L96.6094 34.7051H97.6641ZM116.666 34.7051L114.012 44.584C116.191 39.7676 117.832 36.8027 118.934 35.6895C119.578 35.0332 120.258 34.7051 120.973 34.7051C121.465 34.7051 121.863 34.8867 122.168 35.25C122.473 35.6016 122.625 36.1055 122.625 36.7617C122.625 37.8984 122.35 38.8535 121.799 39.627C121.447 40.1191 121.055 40.3652 120.621 40.3652C120.152 40.3652 119.801 40.1484 119.566 39.7148C119.332 39.2812 119.168 39.0293 119.074 38.959C118.98 38.877 118.881 38.8359 118.775 38.8359C118.658 38.8359 118.535 38.8711 118.406 38.9414C118.148 39.082 117.809 39.4277 117.387 39.9785C116.977 40.5176 116.467 41.4258 115.857 42.7031C115.248 43.9805 114.773 45.0645 114.434 45.9551C114.094 46.834 113.619 48.5156 113.01 51H108.756L111.656 39.3457C111.867 38.4785 111.973 37.9043 111.973 37.623C111.973 37.3066 111.914 37.0605 111.797 36.8848C111.691 36.709 111.539 36.5801 111.34 36.498C111.152 36.416 110.754 36.375 110.145 36.375L110.303 35.8652L115.611 34.7051H116.666ZM127.793 44.4082C127.688 45.1699 127.635 45.7969 127.635 46.2891C127.635 47.168 127.887 47.8711 128.391 48.3984C128.906 48.9258 129.592 49.1895 130.447 49.1895C131.268 49.1895 132.088 48.9902 132.908 48.5918C133.74 48.1934 134.701 47.4961 135.791 46.5L136.318 46.9746C134.971 48.6035 133.658 49.7637 132.381 50.4551C131.104 51.1465 129.691 51.4922 128.145 51.4922C126.188 51.4922 124.834 51.0234 124.084 50.0859C123.334 49.1484 122.959 48.0645 122.959 46.834C122.959 44.9121 123.516 42.9902 124.629 41.0684C125.754 39.1465 127.277 37.6055 129.199 36.4453C131.133 35.2852 133.072 34.7051 135.018 34.7051C136.002 34.7051 136.746 34.9395 137.25 35.4082C137.754 35.877 138.006 36.4688 138.006 37.1836C138.006 38.0391 137.76 38.8711 137.268 39.6797C136.588 40.7812 135.732 41.6719 134.701 42.3516C133.67 43.0195 132.516 43.5293 131.238 43.8809C130.383 44.1152 129.234 44.291 127.793 44.4082ZM127.951 43.4941C128.982 43.3418 129.779 43.1367 130.342 42.8789C130.916 42.6094 131.473 42.1875 132.012 41.6133C132.562 41.0273 133.037 40.2949 133.436 39.416C133.834 38.5254 134.033 37.6934 134.033 36.9199C134.033 36.5918 133.939 36.334 133.752 36.1465C133.576 35.959 133.348 35.8652 133.066 35.8652C132.504 35.8652 131.871 36.2578 131.168 37.043C129.879 38.4727 128.807 40.623 127.951 43.4941Z" fill="white"/>
<g clip-path="url(#clip0_4_0)">
<path d="M138.028 47.5871L139.567 45.3108L138.086 43.9989L136.186 45.5241C136.186 45.5241 136.195 47.5387 134.95 48.6939C134.951 48.6942 136.425 47.4752 138.028 47.5871ZM137.285 46.0151C137.53 46.0053 137.739 46.1942 137.751 46.4352C137.763 46.6765 137.575 46.8804 137.33 46.8901C137.085 46.8999 136.876 46.711 136.864 46.47C136.851 46.2276 137.04 46.0237 137.285 46.0151Z" fill="white"/>
<path d="M166.742 25.1419C160.276 27.4136 150.695 33.4536 141.59 41.2685L141.588 41.2635L140.001 42.6172L140.888 43.3887L141.954 42.1523C146.839 37.9092 159.893 26.9372 177.881 23.0373C177.881 23.0373 184.509 21.7756 191.508 19.2422C189.804 19.8589 186.728 20.2898 185.009 20.6643C180.498 21.6469 175.178 22.1775 166.742 25.1419Z" fill="white"/>
<path d="M143.692 33.2525C141.103 36.8426 140.058 39.9143 140.192 40.9114L140.877 41.1607C144.194 37.9316 158.467 27.0565 165.753 24.6782C173.303 22.2138 178.809 21.185 183.33 20.6191C184.918 20.4205 186.629 19.9915 188.206 19.5111C190.141 18.8727 192.126 18.1593 193.912 17.404L189.121 18.533L191.805 16.5228L187.294 18.6726L190.766 15.7997C185.531 14.4121 179.904 15.2362 179.904 15.2362C177.209 16.7834 174.401 19.7828 174.401 19.7828C174.995 17.9881 177.176 15.7371 177.176 15.7371C176.14 15.8194 172.062 16.519 172.062 16.519C169.912 17.2879 168.089 20.7031 168.089 20.7031C168.292 19.1681 170.386 16.8287 170.386 16.8287C164.632 17.8372 159.536 21.2677 159.536 21.2677C155.504 25.028 156.127 29.3337 155.709 28.2049C155.291 27.0762 156.593 23.9882 156.593 23.9882C149.892 26.9499 148.539 29.0421 148.539 29.0421C146.964 30.7671 144.257 35.929 144.257 35.929C143.971 35.2503 145.475 32.5808 145.475 32.5808C143.35 34.68 143.057 37.2734 143.057 37.2734C142.557 36.8608 143.692 33.2525 143.692 33.2525Z" fill="white"/>
<path d="M193.328 19.0109C193.328 19.0109 190.742 20.1678 187.622 21.118C182.679 22.7492 178.08 23.8794 178.08 23.8794C160.479 27.167 147.324 38.1983 142.913 42.017L144.331 42.5333C144.979 42.3138 145.842 42.2848 149.317 42.5189C153.708 42.8145 156.951 41.2759 156.951 41.2759C156.951 41.2759 152.589 41.9864 150.955 41.1621C149.321 40.3378 146.793 40.1451 146.793 40.1451C146.793 40.1451 146.064 39.4205 150.619 40.3505C155.174 41.2806 164.042 39.0315 164.042 39.0315C164.042 39.0315 160.918 39.1583 159.701 38.6001C158.483 38.0418 155.345 37.0149 155.345 37.0149C157.573 37.2894 159.391 38.2578 162.958 38.2152C166.525 38.1726 166.314 38.211 166.314 38.211C170.299 38.3206 173.116 35.1719 173.116 35.1719C172.416 35.185 167.511 34.0509 165.773 32.7675C164.035 31.4841 160.508 30.8511 160.508 30.8511C164.025 30.9443 164.55 31.6717 165.328 31.9165C166.107 32.1616 168.508 33.265 174.036 33.3625C179.565 33.46 181.722 31.8701 181.722 31.8701L178.247 31.1069C180.543 31.5303 183.503 30.9863 183.503 30.9863C181.857 30.8466 179.448 30.1997 179.448 30.1997C182.422 30.5931 184.263 30.3057 184.263 30.3057C187.556 29.2826 189.207 26.5898 189.207 26.5898C185.092 26.5091 182.41 24.8821 182.41 24.8821C187.551 26.3706 189.412 25.5921 190.22 25.5417C191.028 25.4908 191.773 24.3357 191.773 24.3357C188.905 24.3263 185.975 23.4319 185.975 23.4319C189.261 24.0817 192.498 23.4788 192.498 23.4788L193.071 21.9045C191.619 22.1518 189.309 21.9147 189.309 21.9147L193.377 20.9826C193.95 19.9842 193.328 19.0109 193.328 19.0109Z" fill="white"/>
<path d="M138.442 43.4192L140.115 44.9164L140.795 44.1822L139.122 42.6851L138.442 43.4192Z" fill="white"/>
<path d="M160.471 50.6156C152.869 51.3714 145.881 51.2294 137.513 48.4983C136.732 48.2439 136.448 49.0137 137.233 49.2696C144.718 51.7128 151.45 52.3627 158.397 51.7411C166.135 51.048 173.152 50.6609 181.754 52.7921C182.547 52.9882 182.493 52.1274 181.705 51.9324C174.087 50.0456 167.382 49.9288 160.471 50.6156Z" fill="white"/>
</g>
<defs>
<clipPath id="clip0_4_0">
<rect width="50" height="50" fill="white" transform="translate(150.099 0.99881) rotate(19.9989)"/>
</clipPath>
</defs>
</svg>
